<?xml version="1.0" encoding="utf-8"?>
<!-- Generator: Adobe Illustrator 23.0.1, SVG Export Plug-In . SVG Version: 6.00 Build 0)  -->
<svg version="1.1" id="Layer_1" xmlns="http://www.w3.org/2000/svg" xmlns:xlink="http://www.w3.org/1999/xlink" x="0px" y="0px"
	 viewBox="0 0 100 100" style="enable-background:new 0 0 100 100;" xml:space="preserve">
<style type="text/css">
	.st0{fill:#FFFFFF;}
</style>
<path class="st0" d="M4.6,0l65.09,0c0,0-4.26,44.76,23.72,91.5c0.23,0.3,0.43,0.62,0.58,0.97C93.99,92.48,94,92.49,94,92.5l0,0
	c0.25,0.59,0.39,1.24,0.39,1.92c0,2.7-2.19,4.88-4.88,4.88c-1,0-1.92-0.3-2.69-0.81l0,0c0,0-0.01-0.01-0.03-0.02c0,0,0,0,0,0
	C85.36,97.6,31.41,64.45,4.6,0z"/>
</svg>
